Coordinates
version=1
nRows=30
nColumns=38
inDegrees=no

Units are S.I. units (second, meters, Newtons, ...)
If the header above contains a line with 'inDegrees', this indicates whether rotational values are in degrees (yes) or radians (no).

endheader
time	pelvis_tilt	pelvis_list	pelvis_rotation	pelvis_tx	pelvis_ty	pelvis_tz	hip_flexion_r	hip_adduction_r	hip_rotation_r	knee_angle_r	ankle_angle_r	subtalar_angle_r	mtp_angle_r	hip_flexion_l	hip_adduction_l	hip_rotation_l	knee_angle_l	ankle_angle_l	subtalar_angle_l	mtp_angle_l	lumbar_extension	lumbar_bending	lumbar_rotation	arm_flex_r	arm_add_r	arm_rot_r	elbow_flex_r	pro_sup_r	wrist_flex_r	wrist_dev_r	arm_flex_l	arm_add_l	arm_rot_l	elbow_flex_l	pro_sup_l	wrist_flex_l	wrist_dev_l
2.33	-0.00393167	1.42963	-1.42952	0.651469	-0.410923	0.929936	-0.349998	0.0356677	-0.131493	0.510221	-0.12872	0	0	0.208767	0.0349975	-0.0135782	0.201182	-0.389308	0	0	-0.35621	0.0725487	-0.0141506	-0.172599	-0.476605	0.52321	0.733034	0.855068	0	0	-0.125306	-0.178793	-0.0565039	0.579527	1.5708	0	0
2.34	0.0179513	1.43296	-1.44955	0.654339	-0.421206	0.930265	-0.345802	0.0274567	-0.128998	0.531644	-0.142403	0	0	0.212574	0.0415575	-0.00494412	0.227587	-0.384815	0	0	-0.349555	0.070564	-0.0171686	-0.176751	-0.475999	0.523637	0.72969	0.855948	0	0	-0.128703	-0.177283	-0.0579406	0.57796	1.5708	0	0
2.35	0.0779537	1.42751	-1.51181	0.656733	-0.431841	0.932138	-0.351148	0.0128559	-0.125932	0.550893	-0.164143	0	0	0.197127	0.0509928	-0.00444714	0.235459	-0.389031	0	0	-0.352376	0.0621846	-0.0165007	-0.179037	-0.473001	0.525225	0.722719	0.856672	0	0	-0.129756	-0.176982	-0.0576322	0.574417	1.5708	0	0
2.36	0.0617726	1.43181	-1.49278	0.659424	-0.442266	0.932139	-0.341387	0.0101096	-0.121714	0.577929	-0.193028	0	0	0.200679	0.0505619	0.00265884	0.259908	-0.381302	0	0	-0.339286	0.0664468	0.00475376	-0.216855	-0.461833	0.462284	0.727631	0.890115	0	0	-0.115514	-0.199313	0.0477972	0.563828	1.51224	0	0
2.37	0.0851756	1.43304	-1.51307	0.662065	-0.452664	0.932947	-0.331769	-0.00970571	-0.142752	0.613755	-0.231048	0	0	0.195135	0.056207	0.00610421	0.271797	-0.381592	0	0	-0.337899	0.0644847	-0.0188301	-0.198314	-0.468342	0.503097	0.722631	0.873429	0	0	-0.137619	-0.178085	-0.0502985	0.577359	1.5708	0	0
2.38	0.091102	1.43244	-1.51598	0.664999	-0.462635	0.934377	-0.32413	-0.00758479	-0.118211	0.640766	-0.256528	0	0	0.183472	0.0613325	0.0174756	0.272625	-0.400672	0	0	-0.3359	0.0659668	-0.0209235	-0.20282	-0.468676	0.500704	0.7216	0.875132	0	0	-0.13863	-0.17702	-0.0491027	0.57613	1.5708	0	0
2.39	0.126434	1.4313	-1.54723	0.667547	-0.473108	0.935199	-0.313667	-0.0435028	-0.173538	0.683535	-0.308134	0	0	0.175282	0.0660138	0.00555328	0.288691	-0.353761	0	0	-0.332899	0.0623107	-0.0251417	-0.211319	-0.46825	0.495647	0.725584	0.877078	0	0	-0.145611	-0.179433	-0.0481139	0.584389	1.5708	0	0
2.4	0.147686	1.43081	-1.56596	0.670387	-0.482975	0.936214	-0.295934	-0.0597181	-0.18564	0.730304	-0.353018	0	0	0.164779	0.0706892	0.00157864	0.293951	-0.343128	0	0	-0.330444	0.0613848	-0.0269237	-0.218591	-0.470142	0.492067	0.730001	0.878876	0	0	-0.148598	-0.180004	-0.0453094	0.587898	1.5708	0	0
2.41	0.136951	1.42956	-1.55516	0.673245	-0.49198	0.937881	-0.27696	-0.0408373	-0.122349	0.765227	-0.376646	0	0	0.153021	0.0703988	-0.00118988	0.296029	-0.337509	0	0	-0.331544	0.0651424	-0.0266641	-0.220437	-0.472841	0.491522	0.730786	0.880918	0	0	-0.147933	-0.178239	-0.0432623	0.587631	1.5708	0	0
2.42	0.203559	1.43026	-1.61742	0.675956	-0.501997	0.937794	-0.250287	-0.096246	-0.209496	0.835078	-0.431235	0	0	0.142746	0.0808393	-0.00527323	0.29659	-0.33157	0	0	-0.326288	0.0569663	-0.0322978	-0.231791	-0.473045	0.483267	0.739782	0.887205	0	0	-0.158366	-0.182588	-0.0413923	0.60303	1.5708	0	0
2.43	0.238417	1.42837	-1.6504	0.67857	-0.511183	0.938714	-0.226404	-0.115202	-0.218076	0.887314	-0.479855	0	0	0.13048	0.0884371	-0.00663604	0.300605	-0.320398	0	0	-0.326489	0.0531081	-0.0371578	-0.234807	-0.47485	0.483136	0.744128	0.88419	0	0	-0.163869	-0.183838	-0.0425018	0.611283	1.5708	0	0
2.44	0.240198	1.41861	-1.65664	0.68061	-0.519392	0.941898	-0.214176	-0.0873486	-0.127037	0.909834	-0.50435	0	0	0.104884	0.0893259	-0.0164635	0.290148	-0.320932	0	0	-0.339333	0.0521759	-0.0340925	-0.229277	-0.475514	0.486936	0.739782	0.881537	0	0	-0.157225	-0.181903	-0.041697	0.604875	1.5708	0	0
2.45	0.318704	1.41726	-1.73155	0.682991	-0.528744	0.941393	-0.182579	-0.153247	-0.220936	0.9876	-0.553369	0	0	0.0940791	0.101071	-0.02608	0.29106	-0.314824	0	0	-0.336203	0.0407622	-0.0417007	-0.237882	-0.478215	0.484996	0.752641	0.879595	0	0	-0.168783	-0.18693	-0.0429241	0.623233	1.5708	0	0
2.46	0.322212	1.42445	-1.73055	0.685305	-0.536761	0.940825	-0.144968	-0.162027	-0.221037	1.04114	-0.584581	0	0	0.0967769	0.101187	-0.0223762	0.305162	-0.297173	0	0	-0.328882	0.0432398	-0.0498053	-0.238329	-0.481669	0.488107	0.759186	0.878891	0	0	-0.17599	-0.188292	-0.046674	0.635071	1.5708	0	0
2.47	0.274687	1.42523	-1.68575	0.686812	-0.543659	0.942665	-0.116781	-0.115788	-0.122432	1.06514	-0.590685	0	0	0.0883477	0.091839	-0.0287572	0.306892	-0.287489	0	0	-0.327498	0.0510577	-0.0256821	-0.253687	-0.477544	0.462147	0.758495	0.880703	0	0	-0.147823	-0.217705	0.0781901	0.616707	1.48338	0	0
2.48	0.348071	1.42276	-1.75506	0.689019	-0.552338	0.94232	-0.0866844	-0.18336	-0.217137	1.1308	-0.638049	0	0	0.0766023	0.102777	-0.0369267	0.30735	-0.278682	0	0	-0.331998	0.0406887	-0.064153	-0.222701	-0.494283	0.526589	0.767131	0.843094	0	0	-0.183593	-0.188974	-0.059257	0.649338	1.5708	0	0
2.49	0.347338	1.42	-1.7566	0.690558	-0.559965	0.94355	-0.0600419	-0.19069	-0.211875	1.1704	-0.636462	0	0	0.062134	0.101478	-0.0466959	0.303696	-0.276321	0	0	-0.33578	0.0411802	-0.0625719	-0.222387	-0.495693	0.525351	0.769953	0.843071	0	0	-0.17872	-0.188367	-0.0584773	0.646524	1.5708	0	0
2.5	0.283082	1.42004	-1.69774	0.691578	-0.566407	0.945895	-0.0313412	-0.136892	-0.117433	1.18967	-0.617809	0	0	0.0500924	0.0897825	-0.0513683	0.299768	-0.275279	0	0	-0.342823	0.0511035	-0.0584456	-0.210982	-0.494879	0.528787	0.762131	0.843936	0	0	-0.16726	-0.185607	-0.0565303	0.634715	1.5708	0	0
2.51	0.329168	1.41401	-1.73967	0.693685	-0.574803	0.946223	-0.00905768	-0.203064	-0.209667	1.24234	-0.613632	0	0	0.0311977	0.0986153	-0.0560555	0.293939	-0.270648	0	0	-0.345363	0.0449407	-0.0641222	-0.217518	-0.49514	0.521404	0.770575	0.84392	0	0	-0.16989	-0.190388	-0.0493918	0.642247	1.5708	0	0
2.52	0.305694	1.41047	-1.71678	0.695124	-0.582209	0.947772	0.0134818	-0.204486	-0.207326	1.26982	-0.586974	0	0	0.0144749	0.0950489	-0.0617856	0.287704	-0.269368	0	0	-0.349932	0.0495782	-0.0604409	-0.217152	-0.494533	0.51905	0.768975	0.84451	0	0	-0.159898	-0.191396	-0.0372999	0.632694	1.5708	0	0
2.53	0.21637	1.40846	-1.63517	0.695588	-0.588649	0.950388	0.038139	-0.138566	-0.109801	1.27529	-0.55389	0	0	-0.00109338	0.0787687	-0.070379	0.280382	-0.268947	0	0	-0.359971	0.0634672	-0.0555924	-0.204059	-0.489711	0.514552	0.756969	0.865266	0	0	-0.148734	-0.183113	-0.0500356	0.618751	1.5708	0	0
2.54	0.150852	1.39443	-1.57588	0.696468	-0.599133	0.950217	0.0442904	-0.17873	-0.190969	1.30479	-0.553742	0	0	-0.0472734	0.0643167	-0.0903243	0.244922	-0.264193	0	0	-0.367811	0.0736925	-0.0525062	-0.214532	-0.499842	0.5138	0.777038	0.862442	0	0	-0.163543	-0.182779	-0.0550397	0.63598	1.5708	0	0
2.55	0.117336	1.38151	-1.54225	0.697675	-0.606734	0.952004	0.053669	-0.175219	-0.194347	1.31623	-0.543129	0	0	-0.0779532	0.0566479	-0.0938036	0.231025	-0.262848	0	0	-0.383623	0.0816425	-0.0549569	-0.210096	-0.504096	0.518421	0.783491	0.858608	0	0	-0.163885	-0.182359	-0.0578912	0.642485	1.5708	0	0
2.56	0.0972931	1.381	-1.52227	0.699193	-0.613713	0.95304	0.0790201	-0.171708	-0.190159	1.32554	-0.521967	0	0	-0.0928676	0.0535722	-0.0873399	0.218686	-0.262914	0	0	-0.386673	0.0875681	-0.0597083	-0.198659	-0.507612	0.533438	0.780805	0.846815	0	0	-0.160655	-0.178974	-0.0643434	0.638774	1.5708	0	0
2.57	0.0268786	1.38306	-1.45755	0.699667	-0.619573	0.954604	0.109665	-0.101907	-0.0923979	1.31674	-0.4829	0	0	-0.100081	0.03941	-0.0847557	0.21257	-0.260861	0	0	-0.381922	0.101221	-0.0234526	-0.220249	-0.499422	0.491638	0.775461	0.853748	0	0	-0.118807	-0.209149	0.0836076	0.602813	1.47304	0	0
2.58	0.0612167	1.37667	-1.48224	0.702211	-0.62786	0.954806	0.122617	-0.16537	-0.19051	1.33052	-0.485313	0	0	-0.124551	0.0466679	-0.0725455	0.197634	-0.258622	0	0	-0.390887	0.0999044	-0.0719476	-0.170877	-0.522305	0.593538	0.777192	0.784917	0	0	-0.154408	-0.173945	-0.0743333	0.629336	1.5708	0	0
2.59	0.0451969	1.37392	-1.46455	0.703618	-0.634804	0.955631	0.143047	-0.16074	-0.188784	1.32608	-0.474618	0	0	-0.139197	0.0426171	-0.0705973	0.191789	-0.256832	0	0	-0.394761	0.105533	-0.0727388	-0.167474	-0.521976	0.593638	0.77481	0.786422	0	0	-0.148243	-0.172817	-0.0729673	0.624821	1.5708	0	0
2.6	0.0691303	1.34952	-1.50415	0.702464	-0.640646	0.961828	0.136401	-0.103563	-0.0811416	1.28878	-0.452471	0	0	-0.16803	0.0464827	-0.0500933	0.212439	-0.249489	0	0	-0.429993	0.0961327	-0.0587162	-0.144845	-0.510452	0.604494	0.749268	0.790731	0	0	-0.125652	-0.172704	-0.070365	0.602649	1.5708	0	0
2.61	0.0234679	1.37097	-1.43912	0.706301	-0.648648	0.956606	0.183994	-0.153757	-0.188592	1.30829	-0.449596	0	0	-0.166327	0.035778	-0.0686186	0.177382	-0.250731	0	0	-0.399818	0.114222	-0.0779537	-0.160568	-0.521842	0.593331	0.773186	0.794259	0	0	-0.14069	-0.172493	-0.0711276	0.621204	1.5708	0	0
2.62	0.0299243	1.37098	-1.44235	0.707881	-0.6559	0.956638	0.160463	-0.174118	-0.143086	1.29399	-0.344446	0	0	-0.180013	0.0370054	-0.0637093	0.168443	-0.249869	0	0	-0.398251	0.115521	-0.0785229	-0.165221	-0.52132	0.583478	0.775158	0.802326	0	0	-0.134785	-0.173032	-0.0648327	0.616205	1.5708	0	0
